<svg xmlns="http://www.w3.org/2000/svg" viewBox="0 0 640.63 340.96"><defs><style>.cls-1{fill:#231815;}</style></defs><title>자산 1</title><g id="레이어_2" data-name="레이어 2"><g id="Layer_1" data-name="Layer 1"><path class="cls-1" d="M449.49,310.16a139.32,139.32,0,0,1-102.79-45.23H334.31a148.83,148.83,0,0,0,230.35,0H552.28A139.31,139.31,0,0,1,449.49,310.16Z"/><path class="cls-1" d="M449.49,30.8A139.64,139.64,0,0,1,565.56,92.88h11.1a148.93,148.93,0,0,0-254.35,0h11.1A139.65,139.65,0,0,1,449.49,30.8Z"/><path class="cls-1" d="M449.49,9.34A161.25,161.25,0,0,1,590.65,92.88h10.55a170.36,170.36,0,0,0-303.44,0h10.55A161.25,161.25,0,0,1,449.49,9.34Z"/><path class="cls-1" d="M449.49,331.61a161,161,0,0,1-130.43-66.68H307.65a170.32,170.32,0,0,0,283.67,0h-11.4A161,161,0,0,1,449.49,331.61Z"/><path class="cls-1" d="M19.8,242.73H0V112.14H48.18a36.17,36.17,0,0,1,26.65,11.13,37.57,37.57,0,0,1,0,53.39,36.32,36.32,0,0,1-26.65,11H19.8Zm0-74.83H48.18a17.3,17.3,0,0,0,12.69-5.29A17.16,17.16,0,0,0,66.07,150a17.57,17.57,0,0,0-5.2-12.78,17.32,17.32,0,0,0-12.69-5.29H19.8Z"/><path class="cls-1" d="M121.74,112.14V222.93h46.82v19.8H101.93V112.14Z"/><path class="cls-1" d="M280.62,112.14V242.73H260.72V212.25H216.37l-19.26,30.48H173.66l82.59-130.59Zm-51.74,80.31h31.85V142.16Z"/><path class="cls-1" d="M299.87,242.73v-131h32.21q27.1,0,46.36,19.25a63,63,0,0,1,19.16,46.27,63,63,0,0,1-19.16,46.27q-19.26,19.26-46.36,19.26Zm12-12h20.26a53.59,53.59,0,0,0,53.57-53.57,53.59,53.59,0,0,0-53.57-53.57H311.83Z"/><path class="cls-1" d="M421.61,231A43.53,43.53,0,0,1,408.38,199V112h12V199a33.13,33.13,0,1,0,66.25,0V112h12V199A45.17,45.17,0,0,1,421.61,231Z"/><path class="cls-1" d="M526.65,224.48Q507,204.94,507,177.3T526.65,130q19.53-19.53,47.18-19.53T621.1,130q19.53,19.62,19.53,47.27T621.1,224.48q-19.62,19.61-47.27,19.62T526.65,224.48Zm8.49-85.88a54.64,54.64,0,0,0,0,77.39,54.76,54.76,0,0,0,93.45-38.69,54.72,54.72,0,0,0-93.45-38.7Z"/></g></g></svg>